<svg xmlns="http://www.w3.org/2000/svg" width="800" height="800">
    <g fill="#ffffff" stroke="none" stroke-width="1.75">
        <circle r="2.07894737" />
        <circle cx="50" r="2.07894737" />
        <circle cx="100" r="2.07894737" />
        <circle cx="150" r="2.07894737" />
        <circle cx="200" r="2.07894737" />
        <circle cx="250" r="2.07894737" />
        <circle cx="300" r="2.07894737" />
        <circle cx="350" r="2.07894737" />
        <circle cx="400" r="2.07894737" />
        <circle cx="450" r="2.07894737" />
        <circle cx="500" r="2.07894737" />
        <circle cx="550" r="2.07894737" />
        <circle cx="600" r="2.07894737" />
        <circle cx="650" r="2.07894737" />
        <circle cx="700" r="2.07894737" />
        <circle cx="750" r="2.07894737" />
        <circle cx="800" r="2.07894737" />
        <circle cy="50" r="2.07894737" />
        <circle cx="50" cy="50" r="2.07894737" />
        <circle cx="100" cy="50" r="2.07894737" />
        <circle cx="150" cy="50" r="2.07894737" />
        <circle cx="200" cy="50" r="2.07894737" />
        <circle cx="250" cy="50" r="2.07894737" />
        <circle cx="300" cy="50" r="2.07894737" />
        <circle cx="350" cy="50" r="2.07894737" />
        <circle cx="400" cy="50" r="2.07894737" />
        <circle cx="450" cy="50" r="2.07894737" />
        <circle cx="500" cy="50" r="2.07894737" />
        <circle cx="550" cy="50" r="2.07894737" />
        <circle cx="600" cy="50" r="2.07894737" />
        <circle cx="650" cy="50" r="2.07894737" />
        <circle cx="700" cy="50" r="2.07894737" />
        <circle cx="750" cy="50" r="2.07894737" />
        <circle cx="800" cy="50" r="2.07894737" />
        <circle cy="100" r="2.07894737" />
        <circle cx="50" cy="100" r="2.07894737" />
        <circle cx="100" cy="100" r="2.07894737" />
        <circle cx="150" cy="100" r="2.07894737" />
        <circle cx="200" cy="100" r="2.07894737" />
        <circle cx="250" cy="100" r="2.07894737" />
        <circle cx="300" cy="100" r="2.07894737" />
        <circle cx="350" cy="100" r="2.07894737" />
        <circle cx="400" cy="100" r="2.07894737" />
        <circle cx="450" cy="100" r="2.07894737" />
        <circle cx="500" cy="100" r="2.07894737" />
        <circle cx="550" cy="100" r="2.07894737" />
        <circle cx="600" cy="100" r="2.07894737" />
        <circle cx="650" cy="100" r="2.07894737" />
        <circle cx="700" cy="100" r="2.07894737" />
        <circle cx="750" cy="100" r="2.07894737" />
        <circle cx="800" cy="100" r="2.07894737" />
        <circle cy="150" r="2.07894737" />
        <circle cx="50" cy="150" r="2.07894737" />
        <circle cx="100" cy="150" r="2.07894737" />
        <circle cx="150" cy="150" r="2.07894737" />
        <circle cx="200" cy="150" r="2.07894737" />
        <circle cx="250" cy="150" r="2.07894737" />
        <circle cx="300" cy="150" r="2.07894737" />
        <circle cx="350" cy="150" r="2.07894737" />
        <circle cx="400" cy="150" r="2.07894737" />
        <circle cx="450" cy="150" r="2.07894737" />
        <circle cx="500" cy="150" r="2.07894737" />
        <circle cx="550" cy="150" r="2.07894737" />
        <circle cx="600" cy="150" r="2.07894737" />
        <circle cx="650" cy="150" r="2.07894737" />
        <circle cx="700" cy="150" r="2.07894737" />
        <circle cx="750" cy="150" r="2.07894737" />
        <circle cx="800" cy="150" r="2.07894737" />
        <circle cy="200" r="2.07894737" />
        <circle cx="50" cy="200" r="2.07894737" />
        <circle cx="100" cy="200" r="2.07894737" />
        <circle cx="150" cy="200" r="2.07894737" />
        <circle cx="200" cy="200" r="2.07894737" />
        <circle cx="250" cy="200" r="2.07894737" />
        <circle cx="300" cy="200" r="2.07894737" />
        <circle cx="350" cy="200" r="2.07894737" />
        <circle cx="400" cy="200" r="2.07894737" />
        <circle cx="450" cy="200" r="2.07894737" />
        <circle cx="500" cy="200" r="2.07894737" />
        <circle cx="550" cy="200" r="2.07894737" />
        <circle cx="600" cy="200" r="2.07894737" />
        <circle cx="650" cy="200" r="2.07894737" />
        <circle cx="700" cy="200" r="2.07894737" />
        <circle cx="750" cy="200" r="2.07894737" />
        <circle cx="800" cy="200" r="2.07894737" />
        <circle cy="250" r="2.07894737" />
        <circle cx="50" cy="250" r="2.07894737" />
        <circle cx="100" cy="250" r="2.07894737" />
        <circle cx="150" cy="250" r="2.07894737" />
        <circle cx="200" cy="250" r="2.07894737" />
        <circle cx="250" cy="250" r="2.07894737" />
        <circle cx="300" cy="250" r="2.07894737" />
        <circle cx="350" cy="250" r="2.07894737" />
        <circle cx="400" cy="250" r="2.07894737" />
        <circle cx="450" cy="250" r="2.07894737" />
        <circle cx="500" cy="250" r="2.07894737" />
        <circle cx="550" cy="250" r="2.07894737" />
        <circle cx="600" cy="250" r="2.07894737" />
        <circle cx="650" cy="250" r="2.07894737" />
        <circle cx="700" cy="250" r="2.07894737" />
        <circle cx="750" cy="250" r="2.07894737" />
        <circle cx="800" cy="250" r="2.07894737" />
        <circle cy="300" r="2.07894737" />
        <circle cx="50" cy="300" r="2.07894737" />
        <circle cx="100" cy="300" r="2.07894737" />
        <circle cx="150" cy="300" r="2.07894737" />
        <circle cx="200" cy="300" r="2.07894737" />
        <circle cx="250" cy="300" r="2.07894737" />
        <circle cx="300" cy="300" r="2.07894737" />
        <circle cx="350" cy="300" r="2.07894737" />
        <circle cx="400" cy="300" r="2.07894737" />
        <circle cx="450" cy="300" r="2.07894737" />
        <circle cx="500" cy="300" r="2.07894737" />
        <circle cx="550" cy="300" r="2.07894737" />
        <circle cx="600" cy="300" r="2.07894737" />
        <circle cx="650" cy="300" r="2.07894737" />
        <circle cx="700" cy="300" r="2.07894737" />
        <circle cx="750" cy="300" r="2.07894737" />
        <circle cx="800" cy="300" r="2.07894737" />
        <circle cy="350" r="2.07894737" />
        <circle cx="50" cy="350" r="2.07894737" />
        <circle cx="100" cy="350" r="2.07894737" />
        <circle cx="150" cy="350" r="2.07894737" />
        <circle cx="200" cy="350" r="2.07894737" />
        <circle cx="250" cy="350" r="2.07894737" />
        <circle cx="300" cy="350" r="2.07894737" />
        <circle cx="350" cy="350" r="2.07894737" />
        <circle cx="400" cy="350" r="2.07894737" />
        <circle cx="450" cy="350" r="2.07894737" />
        <circle cx="500" cy="350" r="2.07894737" />
        <circle cx="550" cy="350" r="2.07894737" />
        <circle cx="600" cy="350" r="2.07894737" />
        <circle cx="650" cy="350" r="2.07894737" />
        <circle cx="700" cy="350" r="2.07894737" />
        <circle cx="750" cy="350" r="2.07894737" />
        <circle cx="800" cy="350" r="2.07894737" />
        <circle cy="400" r="2.07894737" />
        <circle cx="50" cy="400" r="2.07894737" />
        <circle cx="100" cy="400" r="2.07894737" />
        <circle cx="150" cy="400" r="2.07894737" />
        <circle cx="200" cy="400" r="2.07894737" />
        <circle cx="250" cy="400" r="2.07894737" />
        <circle cx="300" cy="400" r="2.07894737" />
        <circle cx="350" cy="400" r="2.07894737" />
        <circle cx="400" cy="400" r="2.07894737" />
        <circle cx="450" cy="400" r="2.07894737" />
        <circle cx="500" cy="400" r="2.07894737" />
        <circle cx="550" cy="400" r="2.07894737" />
        <circle cx="600" cy="400" r="2.07894737" />
        <circle cx="650" cy="400" r="2.07894737" />
        <circle cx="700" cy="400" r="2.07894737" />
        <circle cx="750" cy="400" r="2.07894737" />
        <circle cx="800" cy="400" r="2.07894737" />
        <circle cy="450" r="2.07894737" />
        <circle cx="50" cy="450" r="2.07894737" />
        <circle cx="100" cy="450" r="2.07894737" />
        <circle cx="150" cy="450" r="2.07894737" />
        <circle cx="200" cy="450" r="2.07894737" />
        <circle cx="250" cy="450" r="2.07894737" />
        <circle cx="300" cy="450" r="2.07894737" />
        <circle cx="350" cy="450" r="2.07894737" />
        <circle cx="400" cy="450" r="2.07894737" />
        <circle cx="450" cy="450" r="2.07894737" />
        <circle cx="500" cy="450" r="2.07894737" />
        <circle cx="550" cy="450" r="2.07894737" />
        <circle cx="600" cy="450" r="2.07894737" />
        <circle cx="650" cy="450" r="2.07894737" />
        <circle cx="700" cy="450" r="2.07894737" />
        <circle cx="750" cy="450" r="2.07894737" />
        <circle cx="800" cy="450" r="2.07894737" />
        <circle cy="500" r="2.07894737" />
        <circle cx="50" cy="500" r="2.07894737" />
        <circle cx="100" cy="500" r="2.07894737" />
        <circle cx="150" cy="500" r="2.07894737" />
        <circle cx="200" cy="500" r="2.07894737" />
        <circle cx="250" cy="500" r="2.07894737" />
        <circle cx="300" cy="500" r="2.07894737" />
        <circle cx="350" cy="500" r="2.07894737" />
        <circle cx="400" cy="500" r="2.07894737" />
        <circle cx="450" cy="500" r="2.07894737" />
        <circle cx="500" cy="500" r="2.07894737" />
        <circle cx="550" cy="500" r="2.07894737" />
        <circle cx="600" cy="500" r="2.07894737" />
        <circle cx="650" cy="500" r="2.07894737" />
        <circle cx="700" cy="500" r="2.07894737" />
        <circle cx="750" cy="500" r="2.07894737" />
        <circle cx="800" cy="500" r="2.07894737" />
        <circle cy="550" r="2.07894737" />
        <circle cx="50" cy="550" r="2.07894737" />
        <circle cx="100" cy="550" r="2.07894737" />
        <circle cx="150" cy="550" r="2.07894737" />
        <circle cx="200" cy="550" r="2.07894737" />
        <circle cx="250" cy="550" r="2.07894737" />
        <circle cx="300" cy="550" r="2.07894737" />
        <circle cx="350" cy="550" r="2.07894737" />
        <circle cx="400" cy="550" r="2.07894737" />
        <circle cx="450" cy="550" r="2.07894737" />
        <circle cx="500" cy="550" r="2.07894737" />
        <circle cx="550" cy="550" r="2.07894737" />
        <circle cx="600" cy="550" r="2.07894737" />
        <circle cx="650" cy="550" r="2.07894737" />
        <circle cx="700" cy="550" r="2.07894737" />
        <circle cx="750" cy="550" r="2.07894737" />
        <circle cx="800" cy="550" r="2.07894737" />
        <circle cy="600" r="2.07894737" />
        <circle cx="50" cy="600" r="2.07894737" />
        <circle cx="100" cy="600" r="2.07894737" />
        <circle cx="150" cy="600" r="2.07894737" />
        <circle cx="200" cy="600" r="2.07894737" />
        <circle cx="250" cy="600" r="2.07894737" />
        <circle cx="300" cy="600" r="2.07894737" />
        <circle cx="350" cy="600" r="2.07894737" />
        <circle cx="400" cy="600" r="2.07894737" />
        <circle cx="450" cy="600" r="2.07894737" />
        <circle cx="500" cy="600" r="2.07894737" />
        <circle cx="550" cy="600" r="2.07894737" />
        <circle cx="600" cy="600" r="2.07894737" />
        <circle cx="650" cy="600" r="2.07894737" />
        <circle cx="700" cy="600" r="2.07894737" />
        <circle cx="750" cy="600" r="2.07894737" />
        <circle cx="800" cy="600" r="2.07894737" />
        <circle cy="650" r="2.07894737" />
        <circle cx="50" cy="650" r="2.07894737" />
        <circle cx="100" cy="650" r="2.07894737" />
        <circle cx="150" cy="650" r="2.07894737" />
        <circle cx="200" cy="650" r="2.07894737" />
        <circle cx="250" cy="650" r="2.07894737" />
        <circle cx="300" cy="650" r="2.07894737" />
        <circle cx="350" cy="650" r="2.07894737" />
        <circle cx="400" cy="650" r="2.07894737" />
        <circle cx="450" cy="650" r="2.07894737" />
        <circle cx="500" cy="650" r="2.07894737" />
        <circle cx="550" cy="650" r="2.07894737" />
        <circle cx="600" cy="650" r="2.07894737" />
        <circle cx="650" cy="650" r="2.07894737" />
        <circle cx="700" cy="650" r="2.07894737" />
        <circle cx="750" cy="650" r="2.07894737" />
        <circle cx="800" cy="650" r="2.07894737" />
        <circle cy="700" r="2.07894737" />
        <circle cx="50" cy="700" r="2.07894737" />
        <circle cx="100" cy="700" r="2.07894737" />
        <circle cx="150" cy="700" r="2.07894737" />
        <circle cx="200" cy="700" r="2.07894737" />
        <circle cx="250" cy="700" r="2.07894737" />
        <circle cx="300" cy="700" r="2.07894737" />
        <circle cx="350" cy="700" r="2.07894737" />
        <circle cx="400" cy="700" r="2.07894737" />
        <circle cx="450" cy="700" r="2.07894737" />
        <circle cx="500" cy="700" r="2.07894737" />
        <circle cx="550" cy="700" r="2.07894737" />
        <circle cx="600" cy="700" r="2.07894737" />
        <circle cx="650" cy="700" r="2.07894737" />
        <circle cx="700" cy="700" r="2.07894737" />
        <circle cx="750" cy="700" r="2.07894737" />
        <circle cx="800" cy="700" r="2.07894737" />
        <circle cy="750" r="2.07894737" />
        <circle cx="50" cy="750" r="2.07894737" />
        <circle cx="100" cy="750" r="2.07894737" />
        <circle cx="150" cy="750" r="2.07894737" />
        <circle cx="200" cy="750" r="2.07894737" />
        <circle cx="250" cy="750" r="2.07894737" />
        <circle cx="300" cy="750" r="2.07894737" />
        <circle cx="350" cy="750" r="2.07894737" />
        <circle cx="400" cy="750" r="2.07894737" />
        <circle cx="450" cy="750" r="2.07894737" />
        <circle cx="500" cy="750" r="2.07894737" />
        <circle cx="550" cy="750" r="2.07894737" />
        <circle cx="600" cy="750" r="2.07894737" />
        <circle cx="650" cy="750" r="2.07894737" />
        <circle cx="700" cy="750" r="2.07894737" />
        <circle cx="750" cy="750" r="2.07894737" />
        <circle cx="800" cy="750" r="2.07894737" />
        <circle cy="800" r="2.07894737" />
        <circle cx="50" cy="800" r="2.07894737" />
        <circle cx="100" cy="800" r="2.07894737" />
        <circle cx="150" cy="800" r="2.07894737" />
        <circle cx="200" cy="800" r="2.07894737" />
        <circle cx="250" cy="800" r="2.07894737" />
        <circle cx="300" cy="800" r="2.07894737" />
        <circle cx="350" cy="800" r="2.07894737" />
        <circle cx="400" cy="800" r="2.07894737" />
        <circle cx="450" cy="800" r="2.07894737" />
        <circle cx="500" cy="800" r="2.07894737" />
        <circle cx="550" cy="800" r="2.07894737" />
        <circle cx="600" cy="800" r="2.07894737" />
        <circle cx="650" cy="800" r="2.07894737" />
        <circle cx="700" cy="800" r="2.07894737" />
        <circle cx="750" cy="800" r="2.07894737" />
        <circle cx="800" cy="800" r="2.07894737" />
    </g>
</svg>